# xmcd
# 
# Track frame offsets:
#     150
#     5465
#     21625
#     35687
#     53862
#     64425
#     86687
#     101757
#     114870
#     126705
#     142180
#     155000
# 
# Disc length: 2277
# 
# Revision: 2
# Processed by: cddbd v1.5.2PL0 Copyright (c) Steve Scherf et al.
# Submitted via: fre:ac v1.0.17
# 
DISCID=b508e30c
DTITLE=TVサントラ - 機動戦士ZガンダムBGM集VOL.1
DYEAR=1991
DGENRE=Soundtrack
TTITLE0=TVサントラ/イントロダクション
TTITLE1=鮎川麻弥/Z・刻をこえて
TTITLE2=TVサントラ/赤のリック・ディアス
TTITLE3=TVサントラ/新たな世界
TTITLE4=TVサントラ/反乱軍
TTITLE5=TVサントラ/エウーゴ
TTITLE6=TVサントラ/カミーユ・ビダン
TTITLE7=TVサントラ/グリーン・ノア
TTITLE8=TVサントラ/潜在意識
TTITLE9=TVサントラ/ティターンズ
TTITLE10=TVサントラ/虚構の空
TTITLE11=鮎川麻弥/星空のBelieve
EXTD=
EXTT0=
EXTT1=
EXTT2=
EXTT3=
EXTT4=
EXTT5=
EXTT6=
EXTT7=
EXTT8=
EXTT9=
EXTT10=
EXTT11=
PLAYORDER=
